<svg id="Layer_1" data-name="Layer 1" xmlns="http://www.w3.org/2000/svg" viewBox="0 0 1256.42 1256.42">
  <defs>
    <style>
      .cls-1, .cls-2 {
        stroke-width: 0px;
      }
    </style>
  </defs>
  <circle class="cls-1" cx="628.21" cy="628.21" r="628.21" fill="#0f5096"/>
  <g>
    <path class="cls-2" fill="#ffd05d" d="M387.54,362.83l58.48,20.24c10.48,3.61,18.58,12.15,21.76,22.77l20.89,83.79c1.08,4.34,7.3,4.41,8.39,0l21.62-84.08c3.25-10.63,11.42-19.09,21.98-22.63l58.56-19.66c4.05-1.37,3.9-7.16-.22-8.31l-55.81-15.04c-11.71-3.18-20.82-12.22-24.15-23.86l-21.98-90.73c-1.08-4.41-7.37-4.41-8.46.07l-20.68,90.36c-3.18,12-12.58,21.25-24.58,24.36l-55.45,14.39c-4.12,1.08-4.41,6.87-.36,8.31Z"/>
    <path class="cls-2" fill="#ffd05d" d="M1049.93,601.31c-.17-.11-.33-.21-.51-.32-.33-.19-.67-.38-1.02-.55-.65-.32-1.33-.62-2.07-.86l-100.7-32.46c-12.08-3.99-23.22-9.06-33.46-15.1-5.12-3.02-10.02-6.28-14.7-9.77-4.68-3.49-9.14-7.21-13.4-11.14-2.83-2.62-5.57-5.34-8.22-8.15-1.32-1.4-2.62-2.83-3.9-4.28-6.39-7.24-12.2-15.04-17.46-23.32-3.16-4.97-6.11-10.11-8.88-15.42-4.61-8.84-8.68-18.13-12.25-27.8-.71-1.93-1.41-3.88-2.08-5.85-1.35-3.93-2.61-7.91-3.8-11.95-.59-2.02-1.17-4.05-1.72-6.1l-44.31-215.86c-.61-2.26-1.72-4.89-3.88-6.9-.37-.38-.76-.69-1.15-.96-.09-.06-.19-.12-.29-.18-.11-.06-.21-.15-.31-.2v.04c-1.77-1.06-4.02-1.77-7.01-1.77-7.3,0-11.49,5.71-12.65,9.98l-44.31,215.94c-17.78,65.5-55.45,117.62-119.86,138.87l-100.7,32.46c-14.24,4.63-14.46,24.72-.29,29.57l101.43,34.92c64.2,21.33,101.64,73.38,119.43,138.58l44.39,213.48c1.16,4.27,3.54,11.93,12.65,11.93,9.61,0,11.49-7.66,12.65-11.93l44.39-213.48c.69-2.52,1.41-5.01,2.16-7.49.92-3.04,1.88-6.06,2.88-9.03,1.49-4.42,3.07-8.77,4.76-13.04,2.26-5.69,4.7-11.24,7.33-16.64,1.75-3.6,3.59-7.13,5.51-10.58,8.65-15.55,19.04-29.62,31.31-41.82.05-.05.11-.1.16-.16,6.39-6.34,13.31-12.15,20.74-17.42,4.31-3.05,8.8-5.91,13.47-8.58,1.87-1.07,3.78-2.1,5.71-3.11,7.96-4.13,16.4-7.73,25.39-10.71l101.43-34.92s0,0,.01,0c.67-.24,1.29-.53,1.89-.84,10.86-5.41,11.22-20.85,1.26-27.08Z"/>
    <path class="cls-2" fill="#ffd05d" d="M520.19,805.91l-50.6-18.51c-.74-.24-1.43-.49-2.16-.74-42.6-14.97-59.68-33.43-69.84-65.4-1.29-4.41-2.52-9.06-3.84-13.96l-.04-.14c-.53-2.21-1.05-4.47-1.55-6.8-9.9-45.98-20.46-75.98-20.46-75.98-1.09-2.93-2.32-4.93-3.51-6.32-.63-1.2-1.9-2.09-3.5-2.68-.15-.06-.28-.11-.41-.15-5-1.62-12.65-.43-13.77,3.58l-17.13,81.76c-10.19,37.66-31.88,67.59-68.89,79.81l-58.99,25.59c-8.17,2.67-8.31,14.24-.14,16.99l59.42,21.04c36.87,12.22,58.41,42.15,68.68,79.67l17.13,78.22c1.4,5.01,12.98,5.62,16.82,1.83,1.84-1.46,4.65-4.4,7.18-10.07,3.04-6.72,19.09-70.56,19.09-70.56,12.43-54.87,30.72-62.97,70.84-79.09,0,0,0,0,0,0h0s47.28-15.4,47.28-15.4c7.3-1.73,11.49-7.3,11.49-7.3h-.04c5.04-4.23,4.02-13.1-3.07-15.4Z"/>
  </g>
</svg>