<?xml version="1.0" standalone="no"?>
<!DOCTYPE svg PUBLIC "-//W3C//DTD SVG 20010904//EN"
 "http://www.w3.org/TR/2001/REC-SVG-20010904/DTD/svg10.dtd">
<svg version="1.0" xmlns="http://www.w3.org/2000/svg"
 width="700.000000pt" height="700.000000pt" viewBox="0 0 700.000000 700.000000"
 preserveAspectRatio="xMidYMid meet">
<metadata>
Created by potrace 1.14, written by Peter Selinger 2001-2017
</metadata>
<g transform="translate(0.000000,700.000000) scale(0.100000,-0.100000)"
fill="#000000" stroke="none">
<path d="M4489 6651 c-25 -21 -33 -42 -49 -116 -10 -49 -26 -126 -35 -170 -9
-44 -19 -91 -21 -105 -3 -14 -16 -77 -29 -140 -13 -63 -27 -131 -30 -150 -3
-19 -8 -42 -10 -50 -2 -8 -6 -26 -9 -40 -6 -31 -96 -467 -102 -495 -2 -11 -6
-32 -9 -48 -3 -15 -12 -60 -21 -100 -15 -71 -20 -96 -28 -139 -11 -65 -50
-211 -72 -273 -107 -303 -281 -555 -495 -715 -154 -115 -235 -150 -624 -275
-488 -156 -527 -170 -551 -192 -29 -26 -38 -62 -30 -109 13 -66 8 -64 581
-258 110 -37 209 -72 220 -76 11 -5 49 -19 85 -32 297 -103 555 -340 713 -654
88 -174 155 -376 181 -549 4 -22 11 -56 16 -75 5 -19 11 -46 14 -60 3 -21 88
-431 101 -495 3 -11 19 -87 36 -170 17 -82 33 -157 35 -165 3 -16 23 -114 68
-335 42 -204 52 -223 119 -232 28 -3 41 1 66 24 33 30 28 8 181 748 16 77 47
226 69 330 22 105 42 201 45 215 86 439 120 552 227 765 95 190 242 367 401
486 108 80 244 146 438 211 91 31 284 97 429 147 145 50 265 91 266 91 7 0 44
39 53 57 28 51 4 131 -46 156 -29 15 -61 26 -502 167 -324 104 -366 119 -470
171 -274 136 -498 392 -634 725 -46 113 -76 209 -96 304 -15 73 -150 734 -245
1195 -41 204 -80 383 -86 398 -23 56 -103 71 -150 28z"/>
<path d="M2439 6553 c-9 -2 -21 -14 -27 -26 -9 -19 -34 -116 -46 -182 -2 -11
-18 -79 -35 -152 -17 -72 -32 -142 -35 -155 -23 -116 -61 -246 -81 -278 -42
-66 -81 -84 -335 -149 -153 -40 -239 -67 -247 -78 -7 -9 -13 -29 -13 -45 0
-38 5 -40 385 -170 140 -47 189 -78 222 -142 12 -22 99 -347 128 -476 21 -93
48 -198 56 -212 25 -47 87 -42 107 9 6 15 45 163 87 328 81 320 93 357 131
399 37 39 77 56 317 136 119 39 226 79 237 89 11 9 22 26 25 38 8 44 -22 59
-225 113 -271 72 -288 78 -332 118 -52 47 -60 65 -97 217 -17 72 -35 146 -41
165 -5 19 -28 114 -50 210 -50 212 -57 229 -87 241 -13 5 -25 8 -26 8 -1 -1
-9 -3 -18 -6z"/>
<path d="M1404 3545 c-13 -8 -24 -30 -27 -52 -3 -21 -22 -112 -42 -203 -19
-91 -38 -181 -41 -200 -3 -19 -9 -51 -14 -70 -5 -19 -12 -49 -14 -66 -21 -119
-106 -307 -183 -401 -106 -131 -165 -171 -406 -273 -100 -42 -211 -91 -247
-107 -36 -16 -81 -36 -100 -43 -55 -22 -78 -39 -85 -67 -6 -26 15 -70 38 -78
65 -22 477 -169 510 -182 154 -61 288 -189 379 -363 37 -70 87 -222 111 -335
114 -536 103 -505 178 -505 64 0 99 51 142 210 35 126 50 183 53 195 1 6 18
75 39 155 121 481 189 546 763 732 232 75 278 110 247 185 -11 27 -32 36 -281
127 -371 135 -466 189 -567 321 -79 103 -104 173 -196 551 -67 273 -117 431
-147 460 -27 28 -78 32 -110 9z"/>
</g>
</svg>
